# xmcd CD database file
#
# Track frame offsets:
#	150
#	18739
#	39045
#	60773
#	75829
#	91773
#	129353
#	140509
#	154192
#	166286
#	179258
#	200183
#	215779
#	229323
#	242646
#	258964
#	270354
#	279543
#	294240
#
# Disc length: 4278 seconds
#
# Revision: 1
# Processed by: cddbd v1.4PL0 Copyright (c) Steve Scherf et al.
# Submitted via: CDex 1.50beta10
#
DISCID=fd10b413
DTITLE=Various Artist - Jazz 2
DYEAR=2002
DGENRE=Jazz
TTITLE0=Dr.John feat. Rickie Lee Jones, Makin' Whoopee
TTITLE1=Milton Jackson feat. Etta James, Oh, Lady be good
TTITLE2=The Oscar Peterson Trio, Night Train
TTITLE3=Wes Montgomery, Tequila
TTITLE4=Ella Fitzgerald, Let's do it
TTITLE5=Les Mccann and Eddie Harris, Compared to what
TTITLE6=Sarah Vaughan, I feel pretty
TTITLE7=Count Basie and His Orchestra feat. Joe Williams, Alright, Okay, You Win
TTITLE8=Louis Jordan, Choo Choo Ch'Boogie
TTITLE9=Billie Holiday, That Ole DevilCalled Love
TTITLE10=Joao Gilberto, Wave
TTITLE11=Manhattan Transfer, Candy
TTITLE12=Nat Adderly, Call Me
TTITLE13=Charlie Parker, Laura
TTITLE14=Mongo Santamaria, Watermelone Man (Live)
TTITLE15=Herbie Man, Comin' Home Baby
TTITLE16=Brother Jack Mcduff, Teardrops from my eyes
TTITLE17=Hank Crawford, Stormy Weather
TTITLE18=Jimmy Smith and The Big Band, Walk on the wild side (part1)
EXTD=YEAR: 2002
EXTT0=
EXTT1=
EXTT2=
EXTT3=
EXTT4=
EXTT5=
EXTT6=
EXTT7=
EXTT8=
EXTT9=
EXTT10=
EXTT11=
EXTT12=
EXTT13=
EXTT14=
EXTT15=
EXTT16=
EXTT17=
EXTT18=
PLAYORDER=
